<svg width="38" height="38" viewBox="0 0 38 38" fill="none" xmlns="http://www.w3.org/2000/svg">
<g filter="url(#filter0_d_2_108)">
<rect x="4" y="2" width="30" height="30" rx="5" fill="white"/>
<rect x="4.05" y="2.05" width="29.9" height="29.9" rx="4.95" stroke="black" stroke-width="0.1"/>
</g>
<path d="M19.5 23.2708C19.934 23.2708 20.3028 23.1187 20.6062 22.8146C20.9104 22.5111 21.0625 22.1424 21.0625 21.7083H17.9375C17.9375 22.1424 18.0896 22.5111 18.3937 22.8146C18.6972 23.1187 19.066 23.2708 19.5 23.2708ZM14.2916 20.6667H24.7083V18.5833H23.6666V15.875C23.6666 14.816 23.3934 13.8479 22.8469 12.9708C22.2996 12.0944 21.5312 11.5347 20.5416 11.2917V10.7708C20.5416 10.4757 20.442 10.2281 20.2427 10.0281C20.0427 9.82881 19.7951 9.72916 19.5 9.72916C19.2048 9.72916 18.9576 9.82881 18.7583 10.0281C18.5583 10.2281 18.4583 10.4757 18.4583 10.7708V11.2917C17.4687 11.5347 16.7007 12.0944 16.1541 12.9708C15.6069 13.8479 15.3333 14.816 15.3333 15.875V18.5833H14.2916V20.6667ZM19.5 26.9167C18.059 26.9167 16.7048 26.643 15.4375 26.0958C14.1701 25.5493 13.0677 24.8073 12.1302 23.8698C11.1927 22.9323 10.4507 21.8299 9.90415 20.5625C9.35692 19.2951 9.08331 17.941 9.08331 16.5C9.08331 15.059 9.35692 13.7049 9.90415 12.4375C10.4507 11.1701 11.1927 10.0677 12.1302 9.1302C13.0677 8.1927 14.1701 7.45034 15.4375 6.90312C16.7048 6.35659 18.059 6.08333 19.5 6.08333C20.941 6.08333 22.2951 6.35659 23.5625 6.90312C24.8298 7.45034 25.9323 8.1927 26.8698 9.1302C27.8073 10.0677 28.5493 11.1701 29.0958 12.4375C29.643 13.7049 29.9166 15.059 29.9166 16.5C29.9166 17.941 29.643 19.2951 29.0958 20.5625C28.5493 21.8299 27.8073 22.9323 26.8698 23.8698C25.9323 24.8073 24.8298 25.5493 23.5625 26.0958C22.2951 26.643 20.941 26.9167 19.5 26.9167Z" fill="black"/>
<defs>
<filter id="filter0_d_2_108" x="0" y="0" width="38" height="38" filterUnits="userSpaceOnUse" color-interpolation-filters="sRGB">
<feFlood flood-opacity="0" result="BackgroundImageFix"/>
<feColorMatrix in="SourceAlpha" type="matrix" values="0 0 0 0 0 0 0 0 0 0 0 0 0 0 0 0 0 0 127 0" result="hardAlpha"/>
<feOffset dy="2"/>
<feGaussianBlur stdDeviation="2"/>
<feComposite in2="hardAlpha" operator="out"/>
<feColorMatrix type="matrix" values="0 0 0 0 0 0 0 0 0 0 0 0 0 0 0 0 0 0 0.25 0"/>
<feBlend mode="normal" in2="BackgroundImageFix" result="effect1_dropShadow_2_108"/>
<feBlend mode="normal" in="SourceGraphic" in2="effect1_dropShadow_2_108" result="shape"/>
</filter>
</defs>
</svg>
