<svg width="25" height="25" viewBox="0 0 25 25" fill="none" xmlns="http://www.w3.org/2000/svg">
<path d="M22.9167 20.8333V12.6813C22.9167 12.1141 22.801 11.5529 22.5766 11.032C22.3521 10.5111 22.0237 10.0416 21.6115 9.65208L13.9313 2.39375C13.5444 2.02805 13.0323 1.82429 12.5 1.82429C11.9677 1.82429 11.4556 2.02805 11.0688 2.39375L3.38855 9.65208C2.97629 10.0416 2.64788 10.5111 2.42345 11.032C2.19901 11.5529 2.08328 12.1141 2.08334 12.6813V20.8333C2.08334 21.3859 2.30284 21.9158 2.69354 22.3065C3.08424 22.6972 3.61414 22.9167 4.16668 22.9167H20.8333C21.3859 22.9167 21.9158 22.6972 22.3065 22.3065C22.6972 21.9158 22.9167 21.3859 22.9167 20.8333Z" stroke="black" stroke-width="2" stroke-linecap="round" stroke-linejoin="round"/>
<path d="M18.2143 17.5H7.14285" stroke="black" stroke-width="2" stroke-linecap="round"/>
</svg>
