<svg width="50" height="50" viewBox="0 0 50 50" fill="none" xmlns="http://www.w3.org/2000/svg">
<rect width="50" height="50" rx="5" fill="#2F63E8"/>
<path d="M29.7083 16.6458C29.7083 16.5077 29.6535 16.3752 29.5558 16.2775C29.4581 16.1799 29.3256 16.125 29.1875 16.125H26.5833C25.272 16.0597 23.9881 16.516 23.0122 17.3943C22.0363 18.2727 21.4477 19.5016 21.375 20.8125V23.625H18.7708C18.6327 23.625 18.5002 23.6799 18.4025 23.7775C18.3049 23.8752 18.25 24.0077 18.25 24.1458V26.8542C18.25 26.9923 18.3049 27.1248 18.4025 27.2224C18.5002 27.3201 18.6327 27.375 18.7708 27.375H21.375V34.3542C21.375 34.4923 21.4299 34.6248 21.5275 34.7224C21.6252 34.8201 21.7577 34.875 21.8958 34.875H25.0208C25.159 34.875 25.2914 34.8201 25.3891 34.7224C25.4868 34.6248 25.5417 34.4923 25.5417 34.3542V27.375H28.2708C28.3867 27.3767 28.4997 27.3397 28.5922 27.2699C28.6846 27.2001 28.7511 27.1014 28.7812 26.9896L29.5312 24.2812C29.552 24.2043 29.5548 24.1236 29.5394 24.0454C29.524 23.9672 29.4909 23.8936 29.4426 23.8302C29.3943 23.7668 29.3321 23.7153 29.2608 23.6797C29.1895 23.6442 29.1109 23.6254 29.0312 23.625H25.5417V20.8125C25.5676 20.5547 25.6887 20.3157 25.8813 20.1424C26.0739 19.969 26.3242 19.8737 26.5833 19.875H29.1875C29.3256 19.875 29.4581 19.8201 29.5558 19.7224C29.6535 19.6248 29.7083 19.4923 29.7083 19.3542V16.6458Z" fill="white"/>
</svg>
