<svg width="25" height="25" viewBox="0 0 25 25" fill="none" xmlns="http://www.w3.org/2000/svg">
<path d="M2.08335 12.5L6.25002 8.33334V11.4583H14.5834V13.5417H6.25002V16.6667L2.08335 12.5ZM4.16669 18.75C5.47845 20.499 7.30728 21.791 9.39411 22.4429C11.4809 23.0947 13.72 23.0735 15.7941 22.3821C17.8681 21.6908 19.6721 20.3643 20.9505 18.5907C22.2288 16.8171 22.9167 14.6863 22.9167 12.5C22.9167 10.3137 22.2288 8.18288 20.9505 6.40928C19.6721 4.63568 17.8681 3.30925 15.7941 2.61789C13.72 1.92653 11.4809 1.90528 9.39411 2.55716C7.30728 3.20904 5.47845 4.50099 4.16669 6.25001H7.01044C8.21323 5.18924 9.69657 4.49808 11.2824 4.25945C12.8683 4.02082 14.4894 4.24486 15.9511 4.9047C17.4128 5.56453 18.653 6.63212 19.523 7.97937C20.393 9.32662 20.8558 10.8963 20.8558 12.5C20.8558 14.1037 20.393 15.6734 19.523 17.0206C18.653 18.3679 17.4128 19.4355 15.9511 20.0953C14.4894 20.7552 12.8683 20.9792 11.2824 20.7406C9.69657 20.5019 8.21323 19.8108 7.01044 18.75H4.16669Z" fill="#E13333"/>
</svg>
