<svg width="81" height="81" viewBox="0 0 81 81" fill="none" xmlns="http://www.w3.org/2000/svg">
<circle cx="40" cy="41" r="37.5" stroke="#F2F2F2" stroke-width="5"/>
<path d="M78 43C78 37.7471 76.9654 32.5457 74.9552 27.6927C72.945 22.8396 69.9986 18.4301 66.2843 14.7157C62.5699 11.0014 58.1604 8.05501 53.3073 6.04482C48.4543 4.03463 43.2529 3 38 3" stroke="black" stroke-opacity="0.95" stroke-width="5" stroke-linecap="round"/>
<path d="M27.7074 46V44.6705L30.8139 41.794C31.0781 41.5384 31.2997 41.3082 31.4787 41.1037C31.6605 40.8991 31.7983 40.6989 31.892 40.5028C31.9858 40.304 32.0327 40.0895 32.0327 39.8594C32.0327 39.6037 31.9744 39.3835 31.858 39.1989C31.7415 39.0114 31.5824 38.8679 31.3807 38.7685C31.179 38.6662 30.9503 38.6151 30.6946 38.6151C30.4276 38.6151 30.1946 38.669 29.9957 38.777C29.7969 38.8849 29.6435 39.0398 29.5355 39.2415C29.4276 39.4432 29.3736 39.6832 29.3736 39.9616H27.6222C27.6222 39.3906 27.7514 38.8949 28.0099 38.4744C28.2685 38.054 28.6307 37.7287 29.0966 37.4986C29.5625 37.2685 30.0994 37.1534 30.7074 37.1534C31.3324 37.1534 31.8764 37.2642 32.3395 37.4858C32.8054 37.7045 33.1676 38.0085 33.4261 38.3977C33.6847 38.7869 33.8139 39.233 33.8139 39.7358C33.8139 40.0653 33.7486 40.3906 33.6179 40.7116C33.4901 41.0327 33.2614 41.3892 32.9318 41.7812C32.6023 42.1705 32.1378 42.6378 31.5384 43.1832L30.2642 44.4318V44.4915H33.929V46H27.7074ZM38.4535 46.1193C37.8512 46.1193 37.3143 46.0085 36.8427 45.7869C36.3739 45.5653 36.0018 45.2599 35.7262 44.8707C35.4506 44.4815 35.3072 44.0355 35.2958 43.5327H37.0856C37.1055 43.8707 37.2475 44.1449 37.5117 44.3551C37.7759 44.5653 38.0898 44.6705 38.4535 44.6705C38.7433 44.6705 38.9989 44.6065 39.2205 44.4787C39.445 44.348 39.6197 44.1676 39.7447 43.9375C39.8725 43.7045 39.9364 43.4375 39.9364 43.1364C39.9364 42.8295 39.8711 42.5597 39.7404 42.3267C39.6126 42.0937 39.435 41.9119 39.2077 41.7812C38.9805 41.6506 38.7205 41.5838 38.4279 41.581C38.1722 41.581 37.9237 41.6335 37.6822 41.7386C37.4435 41.8437 37.2575 41.9872 37.1239 42.169L35.4833 41.875L35.8967 37.2727H41.2319V38.7812H37.418L37.1921 40.9673H37.2433C37.3967 40.7514 37.6282 40.5724 37.9379 40.4304C38.2475 40.2884 38.5941 40.2173 38.9776 40.2173C39.5032 40.2173 39.9719 40.3409 40.3839 40.5881C40.7958 40.8352 41.1211 41.1747 41.3597 41.6065C41.5984 42.0355 41.7163 42.5298 41.7134 43.0895C41.7163 43.6776 41.5799 44.2003 41.3043 44.6577C41.0316 45.1122 40.6495 45.4702 40.158 45.7315C39.6694 45.9901 39.1012 46.1193 38.4535 46.1193ZM47.7773 44.3636V43.9034C47.7773 43.554 47.8512 43.233 47.9989 42.9403C48.1495 42.6449 48.3668 42.4091 48.6509 42.233C48.9379 42.054 49.2873 41.9645 49.6992 41.9645C50.1168 41.9645 50.4677 42.0526 50.7518 42.2287C51.0387 42.4048 51.2546 42.6406 51.3995 42.9361C51.5472 43.2287 51.6211 43.5511 51.6211 43.9034V44.3636C51.6211 44.7131 51.5472 45.0355 51.3995 45.331C51.2518 45.6236 51.0344 45.858 50.7475 46.0341C50.4606 46.2131 50.1112 46.3026 49.6992 46.3026C49.2816 46.3026 48.9308 46.2131 48.6467 46.0341C48.3626 45.858 48.1467 45.6236 47.9989 45.331C47.8512 45.0355 47.7773 44.7131 47.7773 44.3636ZM49.0174 43.9034V44.3636C49.0174 44.5653 49.0657 44.7557 49.1623 44.9347C49.2617 45.1136 49.4407 45.2031 49.6992 45.2031C49.9577 45.2031 50.1339 45.1151 50.2276 44.9389C50.3242 44.7628 50.3725 44.571 50.3725 44.3636V43.9034C50.3725 43.696 50.3271 43.5028 50.2362 43.3239C50.1452 43.1449 49.9663 43.0554 49.6992 43.0554C49.4435 43.0554 49.266 43.1449 49.1665 43.3239C49.0671 43.5028 49.0174 43.696 49.0174 43.9034ZM43.2987 39.3693V38.9091C43.2987 38.5568 43.3739 38.2344 43.5245 37.9418C43.6751 37.6463 43.8924 37.4105 44.1765 37.2344C44.4634 37.0582 44.81 36.9702 45.2163 36.9702C45.6367 36.9702 45.989 37.0582 46.2731 37.2344C46.5572 37.4105 46.7731 37.6463 46.9208 37.9418C47.0685 38.2344 47.1424 38.5568 47.1424 38.9091V39.3693C47.1424 39.7216 47.0671 40.044 46.9165 40.3366C46.7688 40.6293 46.5515 40.8636 46.2646 41.0398C45.9805 41.2131 45.631 41.2997 45.2163 41.2997C44.8015 41.2997 44.4506 41.2116 44.1637 41.0355C43.8796 40.8565 43.6637 40.6222 43.516 40.3324C43.3711 40.0398 43.2987 39.7187 43.2987 39.3693ZM44.5472 38.9091V39.3693C44.5472 39.5767 44.5955 39.7685 44.6921 39.9446C44.7915 40.1207 44.9663 40.2088 45.2163 40.2088C45.4776 40.2088 45.6552 40.1207 45.7489 39.9446C45.8455 39.7685 45.8938 39.5767 45.8938 39.3693V38.9091C45.8938 38.7017 45.8484 38.5085 45.7575 38.3295C45.6665 38.1506 45.4862 38.0611 45.2163 38.0611C44.9634 38.0611 44.7887 38.152 44.6921 38.3338C44.5955 38.5156 44.5472 38.7074 44.5472 38.9091ZM43.8612 46L49.8612 37.2727H50.9776L44.9776 46H43.8612Z" fill="black" fill-opacity="0.95"/>
</svg>
