<svg width="20" height="20" viewBox="0 0 20 20" fill="none" xmlns="http://www.w3.org/2000/svg">
<path d="M10 1.25C7.68802 1.27789 5.47859 2.20872 3.84366 3.84366C2.20872 5.47859 1.27789 7.68802 1.25 10C1.27789 12.312 2.20872 14.5214 3.84366 16.1563C5.47859 17.7913 7.68802 18.7221 10 18.75C12.312 18.7221 14.5214 17.7913 16.1563 16.1563C17.7913 14.5214 18.7221 12.312 18.75 10C18.7221 7.68802 17.7913 5.47859 16.1563 3.84366C14.5214 2.20872 12.312 1.27789 10 1.25ZM15 10.625H10.625V15H9.375V10.625H5V9.375H9.375V5H10.625V9.375H15V10.625Z" fill="black" fill-opacity="0.5"/>
</svg>
