<svg width="25" height="25" viewBox="0 0 25 25" fill="none" xmlns="http://www.w3.org/2000/svg">
<path d="M2.5 5.8525C2.5 4 4 2.5 5.8525 2.5H16.6475C18.5 2.5 20 4 20 5.8525V11.5087C18.8224 11.1744 17.577 11.1606 16.3923 11.4686C15.2076 11.7767 14.1266 12.3955 13.261 13.261C12.3955 14.1266 11.7767 15.2076 11.4686 16.3923C11.1606 17.577 11.1744 18.8224 11.5087 20H5.8525C5.41224 20 4.9763 19.9133 4.56955 19.7448C4.16281 19.5763 3.79323 19.3294 3.48192 19.0181C2.85321 18.3894 2.5 17.5366 2.5 16.6475V5.8525ZM16.0675 8.5675C16.1849 8.45014 16.2508 8.29097 16.2508 8.125C16.2508 7.95903 16.1849 7.79986 16.0675 7.6825C15.9501 7.56514 15.791 7.49921 15.625 7.49921C15.459 7.49921 15.2999 7.56514 15.1825 7.6825L9.375 13.4913L7.3175 11.4325C7.25939 11.3744 7.1904 11.3283 7.11448 11.2968C7.03856 11.2654 6.95718 11.2492 6.875 11.2492C6.79282 11.2492 6.71144 11.2654 6.63552 11.2968C6.5596 11.3283 6.49061 11.3744 6.4325 11.4325C6.37439 11.4906 6.32829 11.5596 6.29685 11.6355C6.2654 11.7114 6.24921 11.7928 6.24921 11.875C6.24921 11.9572 6.2654 12.0386 6.29685 12.1145C6.32829 12.1904 6.37439 12.2594 6.4325 12.3175L8.9325 14.8175C8.99056 14.8757 9.05953 14.9219 9.13546 14.9534C9.21139 14.9849 9.29279 15.0011 9.375 15.0011C9.45721 15.0011 9.53861 14.9849 9.61454 14.9534C9.69047 14.9219 9.75944 14.8757 9.8175 14.8175L16.0675 8.5675ZM23.75 18.125C23.75 19.6168 23.1574 21.0476 22.1025 22.1025C21.0476 23.1574 19.6168 23.75 18.125 23.75C16.6332 23.75 15.2024 23.1574 14.1475 22.1025C13.0926 21.0476 12.5 19.6168 12.5 18.125C12.5 16.6332 13.0926 15.2024 14.1475 14.1475C15.2024 13.0926 16.6332 12.5 18.125 12.5C19.6168 12.5 21.0476 13.0926 22.1025 14.1475C23.1574 15.2024 23.75 16.6332 23.75 18.125ZM21.0662 18.5675L21.07 18.5637C21.1845 18.4478 21.2491 18.2917 21.25 18.1287V18.1213C21.249 17.9571 21.1834 17.8 21.0675 17.6838L18.5675 15.1838C18.4503 15.0664 18.2913 15.0004 18.1254 15.0003C17.9596 15.0002 17.8005 15.0659 17.6831 15.1831C17.5658 15.3003 17.4998 15.4593 17.4997 15.6252C17.4995 15.791 17.5653 15.9501 17.6825 16.0675L19.1163 17.5H15.625C15.4592 17.5 15.3003 17.5658 15.1831 17.6831C15.0658 17.8003 15 17.9592 15 18.125C15 18.2908 15.0658 18.4497 15.1831 18.5669C15.3003 18.6842 15.4592 18.75 15.625 18.75H19.1163L17.6825 20.1825C17.5651 20.2999 17.4992 20.459 17.4992 20.625C17.4992 20.791 17.5651 20.9501 17.6825 21.0675C17.7999 21.1849 17.959 21.2508 18.125 21.2508C18.291 21.2508 18.4501 21.1849 18.5675 21.0675L21.0675 18.5675H21.0662Z" fill="black" fill-opacity="0.5"/>
</svg>
