<svg width="20" height="20" viewBox="0 0 20 20" fill="none" xmlns="http://www.w3.org/2000/svg">
<rect width="20" height="20" rx="5" fill="black" fill-opacity="0.5"/>
<path d="M11.6625 12.5492C11.7786 12.6653 11.9211 12.7233 12.09 12.7233C12.2589 12.7233 12.4067 12.66 12.5333 12.5333C12.6494 12.4172 12.7075 12.2694 12.7075 12.09C12.7075 11.9105 12.6494 11.7628 12.5333 11.6467L10.6333 9.74666V7.45082C10.6333 7.27138 10.5727 7.1236 10.4516 7.00749C10.33 6.89138 10.1794 6.83332 9.99999 6.83332C9.82055 6.83332 9.67023 6.89391 9.54906 7.01509C9.42746 7.13669 9.36666 7.28721 9.36666 7.46666V9.98416C9.36666 10.0686 9.38249 10.1503 9.41416 10.2293C9.44582 10.3086 9.49332 10.38 9.55666 10.4433L11.6625 12.5492ZM9.99999 16.3333C9.12388 16.3333 8.30055 16.167 7.52999 15.8343C6.75943 15.502 6.08916 15.0508 5.51916 14.4808C4.94916 13.9108 4.49801 13.2405 4.16572 12.47C3.83301 11.6994 3.66666 10.8761 3.66666 9.99999C3.66666 9.12388 3.83301 8.30055 4.16572 7.52999C4.49801 6.75943 4.94916 6.08916 5.51916 5.51916C6.08916 4.94916 6.75943 4.4978 7.52999 4.16509C8.30055 3.8328 9.12388 3.66666 9.99999 3.66666C10.8761 3.66666 11.6994 3.8328 12.47 4.16509C13.2405 4.4978 13.9108 4.94916 14.4808 5.51916C15.0508 6.08916 15.502 6.75943 15.8343 7.52999C16.167 8.30055 16.3333 9.12388 16.3333 9.99999C16.3333 10.8761 16.167 11.6994 15.8343 12.47C15.502 13.2405 15.0508 13.9108 14.4808 14.4808C13.9108 15.0508 13.2405 15.502 12.47 15.8343C11.6994 16.167 10.8761 16.3333 9.99999 16.3333Z" fill="white"/>
</svg>
