<svg width="25" height="25" viewBox="0 0 25 25" fill="none" xmlns="http://www.w3.org/2000/svg">
<path d="M11.9703 8.20312C11.1204 8.20312 10.2897 8.45513 9.58306 8.92728C8.87644 9.39943 8.3257 10.0705 8.00048 10.8557C7.67526 11.6408 7.59017 12.5048 7.75597 13.3383C7.92176 14.1718 8.331 14.9374 8.93193 15.5383C9.53286 16.1393 10.2985 16.5485 11.132 16.7143C11.9655 16.8801 12.8295 16.795 13.6146 16.4698C14.3998 16.1446 15.0709 15.5938 15.543 14.8872C16.0151 14.1806 16.2672 13.3498 16.2672 12.5C16.2659 11.3608 15.8127 10.2686 15.0072 9.46308C14.2017 8.65754 13.1095 8.20442 11.9703 8.20312ZM11.9703 15.2344C11.4295 15.2344 10.9008 15.074 10.4511 14.7735C10.0015 14.4731 9.651 14.046 9.44404 13.5464C9.23709 13.0468 9.18294 12.497 9.28844 11.9665C9.39395 11.4361 9.65437 10.9489 10.0368 10.5665C10.4192 10.1841 10.9064 9.92367 11.4368 9.81817C11.9672 9.71266 12.517 9.76681 13.0167 9.97377C13.5163 10.1807 13.9434 10.5312 14.2438 10.9809C14.5443 11.4305 14.7047 11.9592 14.7047 12.5C14.7038 13.225 14.4155 13.92 13.9029 14.4326C13.3903 14.9452 12.6952 15.2336 11.9703 15.2344Z" fill="black" fill-opacity="0.5"/>
<path d="M22.6904 15.7382L21.1392 14.4612C21.4142 13.1682 21.4142 11.8318 21.1392 10.5388L22.6904 9.26177C22.8694 9.11518 22.9902 8.90968 23.0314 8.68208C23.0727 8.45448 23.0315 8.21965 22.9153 8.01963L21.323 5.26167C21.2078 5.061 21.025 4.90789 20.8073 4.82977C20.5895 4.75166 20.351 4.75366 20.1346 4.8354L18.2518 5.54082C17.2709 4.65463 16.1138 3.98583 14.8563 3.57832L14.5259 1.59731C14.4885 1.36901 14.371 1.16149 14.1945 1.01195C14.018 0.862406 13.7939 0.78062 13.5626 0.78125H10.3779C10.1466 0.780628 9.9226 0.862411 9.74609 1.01194C9.56957 1.16147 9.45207 1.36897 9.41465 1.59727L9.08448 3.57832C7.82696 3.98582 6.66982 4.65462 5.68897 5.54082L3.80591 4.8353C3.5895 4.75361 3.35108 4.75165 3.13336 4.82977C2.91563 4.90789 2.73284 5.06098 2.61773 5.26162L1.0254 8.01977C0.909263 8.21981 0.868137 8.45465 0.909383 8.68224C0.950628 8.90983 1.07155 9.11531 1.25049 9.26186L2.80162 10.5388C2.52662 11.8318 2.52662 13.1682 2.80162 14.4612L1.25035 15.7382C1.07143 15.8848 0.950543 16.0903 0.909325 16.3179C0.868108 16.5455 0.909254 16.7803 1.0254 16.9804L2.61778 19.7383C2.7329 19.939 2.91572 20.0921 3.13348 20.1702C3.35123 20.2483 3.58969 20.2463 3.80611 20.1646L5.68902 19.4592C6.66986 20.3454 7.82701 21.0142 9.08453 21.4217L9.4147 23.4027C9.45211 23.631 9.56959 23.8385 9.7461 23.988C9.92261 24.1376 10.1466 24.2194 10.3779 24.2188H13.5626C13.7939 24.2194 14.0179 24.1376 14.1945 23.9881C14.371 23.8385 14.4885 23.631 14.5259 23.4027L14.8561 21.4217C16.1136 21.0142 17.2708 20.3454 18.2516 19.4592L20.1346 20.1647C20.351 20.2464 20.5895 20.2483 20.8072 20.1702C21.0249 20.0921 21.2077 19.939 21.3228 19.7384L22.915 16.9802C23.0312 16.7803 23.0724 16.5455 23.0313 16.3179C22.9901 16.0903 22.8693 15.8848 22.6904 15.7382ZM20.218 18.5273L17.8689 17.6472L17.5132 18.0053C16.5345 18.9918 15.3104 19.6992 13.967 20.0548L13.4788 20.1835L13.0664 22.6562H10.8745L10.4623 20.1835L9.97403 20.0548C8.63071 19.6992 7.40657 18.9918 6.42789 18.0053L6.07217 17.6472L3.72271 18.5273L2.62696 16.629L4.56197 15.036L4.43013 14.5491C4.06757 13.2071 4.06757 11.7929 4.43013 10.4509L4.56197 9.96401L2.62696 8.37104L3.72295 6.47271L6.07203 7.35278L6.42774 6.99468C7.40642 6.00823 8.63057 5.30075 9.97388 4.94521L10.4622 4.8165L10.8743 2.34375H13.0664L13.4786 4.8165L13.9669 4.94521C15.3102 5.30075 16.5344 6.00823 17.513 6.99468L17.8688 7.35278L20.2178 6.47271L21.3139 8.371L19.3789 9.96401L19.5107 10.4509C19.8733 11.7929 19.8733 13.2071 19.5107 14.5491L19.3789 15.036L21.3139 16.629L20.218 18.5273Z" fill="black" fill-opacity="0.5"/>
</svg>
