<svg width="50" height="50" viewBox="0 0 50 50" fill="none" xmlns="http://www.w3.org/2000/svg">
<rect width="50" height="50" rx="5" fill="#5FB3F0"/>
<path fill-rule="evenodd" clip-rule="evenodd" d="M20.3333 16.125C20.8859 16.125 21.4158 16.3445 21.8065 16.7352C22.1972 17.1259 22.4167 17.6558 22.4167 18.2083V21.3333H28.6667C29.2192 21.3333 29.7491 21.5528 30.1398 21.9435C30.5305 22.3342 30.75 22.8641 30.75 23.4167C30.75 23.9692 30.5305 24.4991 30.1398 24.8898C29.7491 25.2805 29.2192 25.5 28.6667 25.5H22.4167V27.5833C22.4167 28.4121 22.7459 29.207 23.332 29.793C23.918 30.3791 24.7129 30.7083 25.5417 30.7083H28.6667C29.2192 30.7083 29.7491 30.9278 30.1398 31.3185C30.5305 31.7092 30.75 32.2391 30.75 32.7917C30.75 33.3442 30.5305 33.8741 30.1398 34.2648C29.7491 34.6555 29.2192 34.875 28.6667 34.875H25.5417C23.6078 34.875 21.7531 34.1068 20.3857 32.7393C19.0182 31.3719 18.25 29.5172 18.25 27.5833V18.2083C18.25 17.6558 18.4695 17.1259 18.8602 16.7352C19.2509 16.3445 19.7808 16.125 20.3333 16.125Z" fill="white"/>
</svg>
